<svg version="1.2" xmlns="http://www.w3.org/2000/svg" viewBox="0 0 545 170" width="545" height="170">
	<style>
		.s0 { fill: #00373E } 
	</style>
	<g id="Group 5">
		<g id="Group 6">
			<g id="Group 7">
				<path id="Object 8" class="s0" d="m18.36 66.54l-0.08-10.29c0 0 0.17-4.81 5.47-7.59 5.31-2.77 50.31-28.44 50.31-28.44 0 0 4.13-3.42 10.72-0.32 6.6 3.1 74.86 39.18 74.86 39.18v-12.8c0 0-1.27-5.72-6.59-8.66-5.33-2.94-52.21-28.29-52.21-28.29l-11.6-6.2c0 0-4.05-2.86-8.1-2.7-4.06 0.16-8.71 2.62-8.71 2.62l-60.63 33.38c0 0-8.03 3.73-9.85 8.86-1.83 5.12-1.28 8.46-1.28 8.46l0.23 12.79 1.11 37.63 0.47 19.66c0 0-0.03 5.52 5.29 8.46 5.33 2.94 51.63 27.97 51.63 27.97l11.6 6.19c0 0 4.05 2.87 8.1 2.71 4.06-0.16 8.7-2.63 8.7-2.63l60.64-33.37c0 0 8.02-3.74 9.85-8.86 1.83-5.13 1.27-8.47 1.27-8.47l0.02-48.78-16.46-7.76-0.39 54.22c0 0-0.94 4.64-6.24 7.41-5.31 2.78-50.31 28.45-50.31 28.45 0 0-4.13 3.42-10.73 0.32-4.08-1.92-31.81-16.49-52.34-27.3-2.94-1.55-3.8-4.49-4.07-7.99q-0.07-0.9-0.1-1.84l0.07 0.04z"/>
				<path id="Object 9" class="s0" d="m81.08 77.68l27.77 14.81c3.41 1.81 5.3 2.1 6.38 6.27 0.47 1.82 0.31 3.95-1.83 5.68-4.77 3.84-32.45 18.94-32.45 18.94l-52.78-27.1-0.03 20.84 47.9 23.74c0 0 3.98 2.65 9.14-0.27 5.17-2.91 43.57-24.76 43.57-24.76 0 0 4.71-1.2 4.71-6.23 0-5.03 0-18.21 0-18.21 0 0 0.46-3.84-2.39-6.42-2.84-2.59-2.84-2.59-2.84-2.59l-47.69-24.04z"/>
				<path id="Object 10" class="s0" d="m80.57 93.54l-29.87-15.93c-2.54-1.35-3.51-2.01-4.3-5.25-0.44-1.8-0.24-3.88 1.86-5.57 4.76-3.84 32.45-18.94 32.45-18.94l52.82 27.12-0.07-21.34-47.85-23.26c0 0-3.97-2.65-9.14 0.26-5.16 2.91-43.57 24.77-43.57 24.77 0 0-4.7 1.19-4.7 6.22 0 5.03 0 18.21 0 18.21 0 0-0.47 3.84 2.38 6.43 2.85 2.58 2.85 2.58 2.85 2.58l47.68 24.04z"/>
				<path id="Object 11" class="s0" d="m75.21 83.95c-6-2.4-20.71-8.61-21.31-12.06-0.72-4.14 5.31-6.54 21.31-13.82z"/>
				<path id="Object 12" class="s0" d="m86.77 88.01c6 2.39 20.71 8.6 21.31 12.06 0.72 4.13-5.31 6.53-21.31 13.82z"/>
			</g>
			<g id="Group 14">
				<path id="Object 15" class="s0" d="m18.36 66.54l-0.08-10.29c0 0 0.17-4.81 5.47-7.59 5.31-2.77 50.31-28.44 50.31-28.44 0 0 4.13-3.42 10.72-0.32 6.6 3.1 74.86 39.18 74.86 39.18v-12.8c0 0-1.27-5.72-6.59-8.66-5.33-2.94-52.21-28.29-52.21-28.29l-11.6-6.2c0 0-4.05-2.86-8.1-2.7-4.06 0.16-8.71 2.62-8.71 2.62l-60.63 33.38c0 0-8.03 3.73-9.85 8.86-1.83 5.12-1.28 8.46-1.28 8.46l0.23 12.79 1.11 37.63 0.47 19.66c0 0-0.03 5.52 5.29 8.46 5.33 2.94 51.63 27.97 51.63 27.97l11.6 6.19c0 0 4.05 2.87 8.1 2.71 4.06-0.16 8.7-2.63 8.7-2.63l60.64-33.37c0 0 8.02-3.74 9.85-8.86 1.83-5.13 1.27-8.47 1.27-8.47l0.02-48.78-16.46-7.76-0.39 54.22c0 0-0.94 4.64-6.24 7.41-5.31 2.78-50.31 28.45-50.31 28.45 0 0-4.13 3.42-10.73 0.32-4.08-1.92-31.81-16.49-52.34-27.3-2.94-1.55-3.8-4.49-4.07-7.99q-0.07-0.9-0.1-1.84l0.07 0.04z"/>
				<path id="Object 16" class="s0" d="m81.08 77.68l27.77 14.81c3.41 1.81 5.3 2.1 6.38 6.27 0.47 1.82 0.31 3.95-1.83 5.68-4.77 3.84-32.45 18.94-32.45 18.94l-52.78-27.1-0.03 20.84 47.9 23.74c0 0 3.98 2.65 9.14-0.27 5.17-2.91 43.57-24.76 43.57-24.76 0 0 4.71-1.2 4.71-6.23 0-5.03 0-18.21 0-18.21 0 0 0.46-3.84-2.39-6.42-2.84-2.59-2.84-2.59-2.84-2.59l-47.69-24.04z"/>
				<path id="Object 17" class="s0" d="m80.57 93.54l-29.87-15.93c-2.54-1.35-3.51-2.01-4.3-5.25-0.44-1.8-0.24-3.88 1.86-5.57 4.76-3.84 32.45-18.94 32.45-18.94l52.82 27.12-0.07-21.34-47.85-23.26c0 0-3.97-2.65-9.14 0.26-5.16 2.91-43.57 24.77-43.57 24.77 0 0-4.7 1.19-4.7 6.22 0 5.03 0 18.21 0 18.21 0 0-0.47 3.84 2.38 6.43 2.85 2.58 2.85 2.58 2.85 2.58l47.68 24.04z"/>
				<path id="Object 18" class="s0" d="m75.21 83.95c-6-2.4-20.71-8.61-21.31-12.06-0.72-4.14 5.31-6.54 21.31-13.82z"/>
				<path id="Object 19" class="s0" d="m86.77 88.01c6 2.39 20.71 8.6 21.31 12.06 0.72 4.13-5.31 6.53-21.31 13.82z"/>
			</g>
		</g>
		<path id="Object 22" fill-rule="evenodd" class="s0" d="m223.6 38.5c-2.92-5.96-9.16-7.67-15.17-7.67-7.12 0.06-14.95 3.31-14.95 11.25 0 8.67 7.28 10.76 15.17 11.7 5.13 0.55 8.94 2.04 8.94 5.68 0 4.19-4.31 5.79-8.89 5.79-4.69 0-9.15-1.87-10.86-6.12l-6.07 3.15c2.87 7.06 8.94 9.48 16.82 9.48 8.61 0 16.22-3.69 16.22-12.3 0-9.21-7.5-11.31-15.56-12.3-4.63-0.55-8.6-1.49-8.6-4.85 0-2.87 2.59-5.14 8-5.14 4.19 0 7.83 2.1 9.16 4.31zm6.89-6.4v38.67h6.73v-13.9c0-4.08 2.76-7.45 6.73-7.45 3.59 0 6.18 2.1 6.18 7.06v14.29h6.73v-14.34c0-8-3.42-13.24-11.14-13.24-3.09 0-6.07 0.94-8.5 4.08v-15.17zm32.05 11.47v27.2h6.74v-14.34c0-5.02 3.25-6.9 6.78-6.9 2.21 0 3.48 0.61 4.85 1.77l3.04-5.85c-1.49-1.49-4.19-2.59-7.01-2.59-2.76 0-5.57 0.49-7.66 3.86l-0.5-3.15zm50.92 16c1.04-11.2-4.64-16.82-13.74-16.82-8.83 0-14.45 5.95-14.45 14.23 0 8.72 5.57 14.51 14.95 14.51 4.13 0 8.82-1.44 11.69-4.41l-4.3-4.25c-1.55 1.6-4.8 2.54-7.28 2.54-4.75 0-7.67-2.43-8.11-5.8zm-21.13-5.57c0.99-3.53 3.97-5.3 7.61-5.3 3.86 0 6.62 1.77 7.06 5.3zm53.29 5.57c1.05-11.2-4.63-16.82-13.73-16.82-8.83 0-14.46 5.95-14.46 14.23 0 8.72 5.57 14.51 14.95 14.51 4.14 0 8.83-1.44 11.7-4.41l-4.3-4.25c-1.55 1.6-4.8 2.54-7.29 2.54-4.74 0-7.67-2.43-8.11-5.8zm-21.12-5.57c0.99-3.53 3.97-5.3 7.61-5.3 3.86 0 6.62 1.77 7.06 5.3zm25.76-21.9v38.67h6.73v-13.9c0-4.08 2.76-7.45 6.73-7.45 3.59 0 6.18 2.1 6.18 7.06v14.29h6.73v-14.34c0-8-3.42-13.24-11.14-13.24-3.09 0-6.07 0.94-8.5 4.08v-15.17zm53.4 15.23c-1.54-2.71-5.02-4.42-8.66-4.42-7.94-0.05-14.17 4.86-14.17 14.23 0 9.55 5.95 14.51 14.01 14.46 3.03-0.06 7.28-1.6 8.82-4.8l0.33 3.97h6.35v-27.2h-6.45zm-8.06 1.6c10.59 0 10.59 16.5 0 16.5-4.47 0-8.05-3.09-8.05-8.28 0-5.18 3.58-8.22 8.05-8.22zm20.41-5.35v27.2h6.73v-14.34c0-5.02 3.26-6.9 6.79-6.9 2.2 0 3.47 0.61 4.85 1.76l3.04-5.84c-1.49-1.49-4.2-2.6-7.01-2.6-2.76 0-5.57 0.5-7.67 3.87l-0.49-3.15zm30.67-0.11v27.31h-6.73v-27.31zm-7.34-7.56c0 5.24 7.94 5.24 7.94 0 0-5.24-7.94-5.24-7.94 0zm55.72 34.87h7.94l-17.32-38.67h-7.94l-17.33 38.67h7.89l3.31-7.28h20.19zm-6.18-14.07h-14.34l7.17-16.48zm16.33-24.49v38.56h6.68v-38.56zm12.74 11.36v14.29c0 8.44 4.74 13.35 11.25 13.35 3.81 0 6.4-1.32 9.22-4.08l0.44 3.64h6.01v-27.2h-6.67v13.88c0 4.16-2.82 7.64-6.95 7.64-4.31 0-6.57-3.15-6.57-7.28v-14.24zm-294.92 74.11c-2.53 2.54-6.34 3.92-9.7 3.92-9.55 0-13.24-6.68-13.3-13.08-0.05-6.45 3.97-13.4 13.3-13.4 3.36 0 6.78 1.16 9.32 3.64l4.85-4.69c-3.97-3.92-8.93-5.9-14.17-5.9-13.96 0-20.53 10.26-20.47 20.35 0.05 10.04 6.12 19.92 20.47 19.92 5.57 0 10.7-1.82 14.67-5.74zm20.8-17.87c-8.66 0-14.07 6.4-14.07 14.17 0 7.84 5.3 14.18 14.12 14.18 8.83 0 14.18-6.34 14.18-14.18 0-7.77-5.57-14.17-14.23-14.17zm0.05 6.12c4.53 0 7.4 3.97 7.4 8.05 0 4.14-2.49 8-7.4 8-4.91 0-7.39-3.86-7.39-8 0-4.08 2.54-8.05 7.39-8.05zm18.82-5.57v27.2h6.73v-14.35c0-5.02 3.25-6.89 6.78-6.89 2.21 0 3.48 0.6 4.86 1.76l3.03-5.85c-1.49-1.49-4.19-2.59-7.01-2.59-2.76 0-5.57 0.5-7.66 3.86l-0.5-3.14zm30.67 38.56v-14.56c1.93 2.97 6.18 3.86 9.05 3.86 8.71 0 13.74-6.29 13.74-14.24 0-7.99-5.58-14.23-13.96-14.23-3.09 0-6.73 1.33-8.83 4.36l-0.44-3.75h-6.29v38.56zm8.33-17.21c-4.58 0-7.72-3.48-7.72-7.73 0-4.24 2.87-7.72 7.72-7.72 4.86 0 7.72 3.48 7.72 7.72 0 4.25-3.14 7.73-7.72 7.73zm32.22-21.9c-8.66 0-14.07 6.4-14.07 14.17 0 7.84 5.3 14.18 14.12 14.18 8.83 0 14.18-6.34 14.18-14.18 0-7.77-5.57-14.17-14.23-14.17zm0.05 6.12c4.53 0 7.4 3.97 7.4 8.05 0 4.14-2.49 8-7.4 8-4.91 0-7.39-3.86-7.39-8 0-4.08 2.54-8.05 7.39-8.05zm18.81-5.57v27.2h6.74v-14.35c0-5.02 3.25-6.89 6.78-6.89 2.21 0 3.48 0.6 4.85 1.76l3.04-5.85c-1.49-1.49-4.19-2.59-7.01-2.59-2.76 0-5.57 0.5-7.66 3.86l-0.5-3.14zm45.29 3.75c-1.55-2.7-5.02-4.41-8.66-4.41-7.95-0.06-14.18 4.85-14.18 14.23 0 9.54 5.96 14.51 14.01 14.45 3.04-0.05 7.28-1.6 8.83-4.8l0.33 3.98h6.34v-27.2h-6.45zm-8.05 1.6c10.59 0 10.59 16.49 0 16.49-4.47 0-8.06-3.09-8.06-8.27 0-5.19 3.59-8.22 8.06-8.22zm22.01-12.31v7.01h-5.08v5.79h5.08v11.75c0 6.79 3.86 10.15 9.76 9.93 2.04-0.05 3.64-0.38 5.57-1.15l-1.87-5.74c-1 0.49-2.21 0.83-3.26 0.83-2.09 0-3.53-1.27-3.53-3.87v-11.75h7.56v-5.79h-7.5v-7.72zm25.98 6.84v27.31h-6.73v-27.31zm-7.34-7.56c0 5.24 7.95 5.24 7.95 0 0-5.24-7.95-5.24-7.95 0zm26.81 7.12c-8.66 0-14.06 6.4-14.06 14.18 0 7.83 5.29 14.17 14.12 14.17 8.82 0 14.18-6.34 14.18-14.17 0-7.78-5.58-14.18-14.24-14.18zm0.06 6.12c4.52 0 7.39 3.97 7.39 8.06 0 4.13-2.48 7.99-7.39 7.99-4.91 0-7.39-3.86-7.39-7.99 0-4.09 2.53-8.06 7.39-8.06zm45.56 21.63v-14.29c0-8.55-5.13-13.35-11.53-13.35-3.41 0-6.17 1.38-8.93 4.08l-0.44-3.7h-6.02v27.26h6.68v-13.91c0-4.13 2.81-7.61 6.95-7.61 4.3 0 6.56 3.15 6.56 7.28v14.24z"/>
	</g>
</svg>